<mxfile host="app.diagrams.net" modified="2024-05-30T11:13:43.797Z" agent="Mozilla/5.0 (Windows NT 10.0; Win64; x64) AppleWebKit/537.36 (KHTML, like Gecko) Chrome/125.0.0.0 Safari/537.36" etag="LqLFlt3Z0jkFVUkbjlWR" version="24.3.1" type="github">
  <diagram name="Page-1" id="6l-aWB1IVbLnmjOB7kB2">
    <mxGraphModel dx="2074" dy="1132" grid="1" gridSize="10" guides="1" tooltips="1" connect="1" arrows="1" fold="1" page="1" pageScale="1" pageWidth="1654" pageHeight="1169" math="0" shadow="0">
      <root>
        <mxCell id="0" />
        <mxCell id="1" parent="0" />
        <mxCell id="HJ-X_CtZePHmuaZGEfmu-8" style="edgeStyle=orthogonalEdgeStyle;rounded=0;orthogonalLoop=1;jettySize=auto;html=1;endArrow=classic;endFill=1;exitX=1;exitY=0.5;exitDx=0;exitDy=0;entryX=0;entryY=0;entryDx=120;entryDy=270;entryPerimeter=0;" edge="1" parent="1" source="HJ-X_CtZePHmuaZGEfmu-1" target="HJ-X_CtZePHmuaZGEfmu-11">
          <mxGeometry relative="1" as="geometry">
            <mxPoint x="1110" y="430" as="targetPoint" />
          </mxGeometry>
        </mxCell>
        <mxCell id="HJ-X_CtZePHmuaZGEfmu-1" value="Load Balancer" style="shape=module;align=left;spacingLeft=20;align=center;verticalAlign=top;whiteSpace=wrap;html=1;" vertex="1" parent="1">
          <mxGeometry x="900" y="430" width="200" height="60" as="geometry" />
        </mxCell>
        <mxCell id="HJ-X_CtZePHmuaZGEfmu-2" value="Language model (LLAMA2)" style="shape=module;align=left;spacingLeft=20;align=center;verticalAlign=top;whiteSpace=wrap;html=1;" vertex="1" parent="1">
          <mxGeometry x="1180" y="480" width="200" height="60" as="geometry" />
        </mxCell>
        <mxCell id="HJ-X_CtZePHmuaZGEfmu-12" style="edgeStyle=orthogonalEdgeStyle;rounded=0;orthogonalLoop=1;jettySize=auto;html=1;" edge="1" parent="1" source="HJ-X_CtZePHmuaZGEfmu-3" target="HJ-X_CtZePHmuaZGEfmu-2">
          <mxGeometry relative="1" as="geometry" />
        </mxCell>
        <mxCell id="HJ-X_CtZePHmuaZGEfmu-3" value="Text-to-speech algorithm" style="shape=module;align=center;spacingLeft=20;align=center;verticalAlign=top;whiteSpace=wrap;html=1;" vertex="1" parent="1">
          <mxGeometry x="1180" y="390" width="200" height="60" as="geometry" />
        </mxCell>
        <mxCell id="HJ-X_CtZePHmuaZGEfmu-11" value="AI Servers" style="verticalAlign=top;align=left;spacingTop=8;spacingLeft=2;spacingRight=12;shape=cube;size=10;direction=south;fontStyle=4;html=1;whiteSpace=wrap;fillColor=none;movable=1;resizable=1;rotatable=1;deletable=1;editable=1;locked=0;connectable=1;" vertex="1" parent="1">
          <mxGeometry x="1150" y="340" width="270" height="230" as="geometry" />
        </mxCell>
        <mxCell id="HJ-X_CtZePHmuaZGEfmu-14" value="Audio Preprocessor" style="shape=module;align=left;spacingLeft=20;align=center;verticalAlign=top;whiteSpace=wrap;html=1;" vertex="1" parent="1">
          <mxGeometry x="470" y="425" width="200" height="60" as="geometry" />
        </mxCell>
        <mxCell id="HJ-X_CtZePHmuaZGEfmu-15" value="Broadcaster&#39;s streaming client" style="verticalAlign=top;align=left;spacingTop=8;spacingLeft=2;spacingRight=12;shape=cube;size=10;direction=south;fontStyle=4;html=1;whiteSpace=wrap;fillColor=none;movable=1;resizable=1;rotatable=1;deletable=1;editable=1;locked=0;connectable=1;" vertex="1" parent="1">
          <mxGeometry x="450" y="340" width="270" height="230" as="geometry" />
        </mxCell>
      </root>
    </mxGraphModel>
  </diagram>
</mxfile>
